<?xml version="1.0" standalone="no"?><!DOCTYPE svg PUBLIC "-//W3C//DTD SVG 1.1//EN" "http://www.w3.org/Graphics/SVG/1.1/DTD/svg11.dtd"><svg t="1570674129271" class="icon" viewBox="0 0 1024 1024" version="1.1" xmlns="http://www.w3.org/2000/svg" p-id="2474" xmlns:xlink="http://www.w3.org/1999/xlink" width="500" height="500"><defs><style type="text/css"></style></defs><path d="M805.546667 819.2H218.453333c-6.826667 0-13.653333-6.826667-13.653333-13.653333v-23.893334c0-6.826667 6.826667-13.653333 13.653333-13.653333h587.093334c6.826667 0 13.653333 6.826667 13.653333 13.653333v23.893334c0 6.826667-6.826667 13.653333-13.653333 13.653333zM853.333333 170.666667H170.666667c-20.48 0-34.133333 13.653333-34.133334 34.133333v477.866667c0 20.48 13.653333 34.133333 34.133334 34.133333h682.666666c20.48 0 34.133333-13.653333 34.133334-34.133333V204.8c0-20.48-13.653333-34.133333-34.133334-34.133333zM296.96 593.92c0 6.826667-6.826667 13.653333-13.653333 13.653333h-20.48c-10.24 0-17.066667-6.826667-17.066667-13.653333v-211.626667c0-6.826667 6.826667-13.653333 13.653333-13.653333h23.893334c6.826667 0 13.653333 6.826667 13.653333 13.653333v211.626667z m160.426667 0c0 6.826667-6.826667 13.653333-13.653334 13.653333h-23.893333c-6.826667 0-13.653333-6.826667-13.653333-13.653333V279.893333c0-6.826667 6.826667-13.653333 13.653333-13.653333h23.893333c6.826667 0 13.653333 6.826667 13.653334 13.653333v314.026667z m160.426666 0c0 6.826667-6.826667 13.653333-13.653333 13.653333H580.266667c-6.826667 0-13.653333-6.826667-13.653334-13.653333v-245.76c0-6.826667 6.826667-13.653333 13.653334-13.653333h23.893333c6.826667 0 13.653333 6.826667 13.653333 13.653333v245.76z m157.013334 0c0 6.826667-6.826667 13.653333-13.653334 13.653333h-23.893333c-6.826667 0-13.653333-6.826667-13.653333-13.653333v-245.76c0-6.826667 6.826667-13.653333 13.653333-13.653333h23.893333c6.826667 0 13.653333 6.826667 13.653334 13.653333v245.76z" fill="#708BB1" p-id="2475"></path></svg>