<?xml version="1.0" standalone="no"?><!DOCTYPE svg PUBLIC "-//W3C//DTD SVG 1.1//EN" "http://www.w3.org/Graphics/SVG/1.1/DTD/svg11.dtd"><svg t="1570673969157" class="icon" viewBox="0 0 1024 1024" version="1.1" xmlns="http://www.w3.org/2000/svg" p-id="2120" xmlns:xlink="http://www.w3.org/1999/xlink" width="500" height="500"><defs><style type="text/css"></style></defs><path d="M808.96 785.066667H215.04c-6.826667 0-10.24-3.413333-10.24-10.24v-34.133334c0-6.826667 3.413333-10.24 10.24-10.24h597.333333c6.826667 0 10.24 3.413333 10.24 10.24v34.133334c-3.413333 6.826667-6.826667 10.24-13.653333 10.24zM853.333333 136.533333H170.666667c-20.48 0-34.133333 13.653333-34.133334 34.133334v477.866666c0 20.48 13.653333 34.133333 34.133334 34.133334h682.666666c20.48 0 34.133333-13.653333 34.133334-34.133334V170.666667c0-20.48-13.653333-34.133333-34.133334-34.133334z m-68.266666 392.533334h-238.933334c-6.826667 0-10.24-3.413333-13.653333-6.826667L375.466667 303.786667l-122.88 215.04c-3.413333 6.826667-10.24 10.24-13.653334 10.24-3.413333 0-6.826667 0-6.826666-3.413334-6.826667-3.413333-10.24-13.653333-6.826667-23.893333l136.533333-238.933333c3.413333-3.413333 6.826667-6.826667 13.653334-10.24 6.826667 0 10.24 3.413333 13.653333 6.826666l167.253333 232.106667H785.066667c10.24 0 17.066667 6.826667 17.066666 17.066667s-6.826667 20.48-17.066666 20.48z" fill="#708BB1" p-id="2121"></path></svg>