<?xml version="1.0" standalone="no"?><!DOCTYPE svg PUBLIC "-//W3C//DTD SVG 1.1//EN" "http://www.w3.org/Graphics/SVG/1.1/DTD/svg11.dtd"><svg t="1570673880140" class="icon" viewBox="0 0 1024 1024" version="1.1" xmlns="http://www.w3.org/2000/svg" p-id="1884" xmlns:xlink="http://www.w3.org/1999/xlink" width="500" height="500"><defs><style type="text/css"></style></defs><path d="M887.466667 921.6H430.08c-10.24 0-20.48-10.24-20.48-20.48V443.733333c0-10.24 10.24-20.48 20.48-20.48H887.466667c10.24 0 20.48 10.24 20.48 20.48v457.386667c0 10.24-10.24 20.48-20.48 20.48zM344.746667 921.6H184.32c-6.826667 0-13.653333-6.826667-13.653333-13.653333V184.32c0-6.826667 6.826667-13.653333 13.653333-13.653333h160.426667c6.826667 0 13.653333 6.826667 13.653333 13.653333v723.626667c0 6.826667-6.826667 13.653333-13.653333 13.653333zM894.293333 375.466667H423.253333c-6.826667 0-13.653333-6.826667-13.653333-13.653334V184.32c0-6.826667 6.826667-13.653333 13.653333-13.653333h471.04c6.826667 0 13.653333 6.826667 13.653334 13.653333v177.493333c0 6.826667-6.826667 13.653333-13.653334 13.653334z" fill="#708BB1" p-id="1885"></path></svg>