<?xml version="1.0" standalone="no"?><!DOCTYPE svg PUBLIC "-//W3C//DTD SVG 1.1//EN" "http://www.w3.org/Graphics/SVG/1.1/DTD/svg11.dtd"><svg t="1570673368268" class="icon" viewBox="0 0 1024 1024" version="1.1" xmlns="http://www.w3.org/2000/svg" p-id="884" xmlns:xlink="http://www.w3.org/1999/xlink" width="200" height="200"><defs><style type="text/css"></style></defs><path d="M884.053333 877.226667h-310.613333c-13.653333 0-27.306667-13.653333-27.306667-27.306667v-310.613333c0-13.653333 13.653333-27.306667 27.306667-27.306667h310.613333c13.653333 0 27.306667 13.653333 27.306667 27.306667v310.613333c0 13.653333-13.653333 27.306667-27.306667 27.306667zM884.053333 491.52h-310.613333c-13.653333 0-27.306667-13.653333-27.306667-27.306667V153.6c0-13.653333 13.653333-27.306667 27.306667-27.306667h310.613333c13.653333 0 27.306667 13.653333 27.306667 27.306667v310.613333c0 13.653333-13.653333 27.306667-27.306667 27.306667zM498.346667 877.226667H187.733333c-13.653333 0-27.306667-13.653333-27.306666-27.306667v-310.613333c0-13.653333 13.653333-27.306667 27.306666-27.306667h310.613334c13.653333 0 27.306667 13.653333 27.306666 27.306667v310.613333c0 13.653333-13.653333 27.306667-27.306666 27.306667zM498.346667 491.52H187.733333c-13.653333 0-27.306667-13.653333-27.306666-27.306667V153.6c0-13.653333 13.653333-27.306667 27.306666-27.306667h310.613334c13.653333 0 27.306667 13.653333 27.306666 27.306667v310.613333c0 13.653333-13.653333 27.306667-27.306666 27.306667z" fill="#708BB1" p-id="885"></path></svg>