<?xml version="1.0" standalone="no"?><!DOCTYPE svg PUBLIC "-//W3C//DTD SVG 1.1//EN" "http://www.w3.org/Graphics/SVG/1.1/DTD/svg11.dtd"><svg t="1564490737773" class="icon" viewBox="0 0 1024 1024" version="1.1" xmlns="http://www.w3.org/2000/svg" p-id="9844" xmlns:xlink="http://www.w3.org/1999/xlink" width="200" height="200"><defs><style type="text/css"></style></defs><path d="M126 600v265h265V600H126z m-30-60h325c16.569 0 30 13.431 30 30v325c0 16.569-13.431 30-30 30H96c-16.569 0-30-13.431-30-30V570c0-16.569 13.431-30 30-30zM126 157v265h265V157H126zM96 97h325c16.569 0 30 13.431 30 30v325c0 16.569-13.431 30-30 30H96c-16.569 0-30-13.431-30-30V127c0-16.569 13.431-30 30-30z" fill="#85A5FF" p-id="9845"></path><path d="M544 157h379.561c19.33 0 35 15.67 35 35s-15.67 35-35 35H544c-19.33 0-35-15.67-35-35s15.67-35 35-35z m0 195h379.561c19.33 0 35 15.67 35 35s-15.67 35-35 35H544c-19.33 0-35-15.67-35-35s15.67-35 35-35zM543 600h379.561c19.33 0 35 15.67 35 35s-15.67 35-35 35H543c-19.33 0-35-15.67-35-35s15.67-35 35-35z m0 195h379.561c19.33 0 35 15.67 35 35s-15.67 35-35 35H543c-19.33 0-35-15.67-35-35s15.67-35 35-35z" fill="#2F54EB" p-id="9846"></path></svg>