<?xml version="1.0" standalone="no"?><!DOCTYPE svg PUBLIC "-//W3C//DTD SVG 1.1//EN" "http://www.w3.org/Graphics/SVG/1.1/DTD/svg11.dtd"><svg t="1564630486217" class="icon" viewBox="0 0 1024 1024" version="1.1" xmlns="http://www.w3.org/2000/svg" p-id="2566" xmlns:xlink="http://www.w3.org/1999/xlink" width="200" height="200"><defs><style type="text/css"></style></defs><path d="M512 104.96c54.96832 0 108.270592 10.756096 158.426112 31.970304 48.464896 20.499456 92.000256 49.85344 129.394688 87.248896 37.394432 37.395456 66.74944 80.929792 87.248896 129.394688C908.283904 403.729408 919.04 457.03168 919.04 512s-10.756096 108.270592-31.970304 158.426112c-20.499456 48.464896-49.85344 92.000256-87.248896 129.394688-37.395456 37.394432-80.929792 66.74944-129.394688 87.248896C620.270592 908.283904 566.96832 919.04 512 919.04s-108.270592-10.756096-158.426112-31.970304c-48.464896-20.498432-92.000256-49.85344-129.394688-87.248896-37.395456-37.395456-66.74944-80.929792-87.248896-129.394688C115.716096 620.270592 104.96 566.96832 104.96 512s10.756096-108.270592 31.970304-158.426112c20.499456-48.464896 49.85344-92.000256 87.248896-129.394688 37.395456-37.395456 80.929792-66.74944 129.394688-87.248896C403.729408 115.716096 457.03168 104.96 512 104.96M512 64C264.576 64 64 264.576 64 512S264.576 960 512 960 960 759.424 960 512 759.424 64 512 64L512 64z" p-id="2567" fill="#1afa29"></path><path d="M557.837312 250.665984l-47.730688 0-74.665984 0c-0.566272 0-1.024 0.458752-1.024 1.024l0 47.729664c0 0.565248 0.457728 1.024 1.024 1.024l73.641984 0 0 471.866368c0 0.565248 0.458752 1.024 1.024 1.024l47.730688 0c0.565248 0 1.024-0.458752 1.024-1.024L558.861312 299.419648l0-47.729664C558.861312 251.124736 558.40256 250.665984 557.837312 250.665984L557.837312 250.665984z" p-id="2568" fill="#1afa29"></path></svg>