<?xml version="1.0" standalone="no"?><!DOCTYPE svg PUBLIC "-//W3C//DTD SVG 1.1//EN" "http://www.w3.org/Graphics/SVG/1.1/DTD/svg11.dtd"><svg t="1564490914158" class="icon" viewBox="0 0 1024 1024" version="1.1" xmlns="http://www.w3.org/2000/svg" p-id="12557" xmlns:xlink="http://www.w3.org/1999/xlink" width="200" height="200"><defs><style type="text/css"></style></defs><path d="M415.744 367.616c-79.872 0-145.408 65.536-145.408 145.408 0 79.872 65.536 145.408 145.408 145.408 79.872 0 145.408-65.536 145.408-145.408 0-79.872-65.536-145.408-145.408-145.408z m0 260.096c-63.488 0-114.688-51.2-114.688-114.688s51.2-114.688 114.688-114.688 114.688 51.2 114.688 114.688-51.2 114.688-114.688 114.688z" p-id="12558" fill="#1296db"></path><path d="M753.664 435.2l-73.728-12.288s-4.096-1.024-6.144-8.192c0-1.024-1.024-2.048-1.024-2.048l-3.072-5.12-3.072-7.168c-3.072-8.192-12.288-12.288-19.456-9.216-8.192 3.072-12.288 12.288-9.216 19.456l3.072 8.192s0 1.024 1.024 1.024l3.072 5.12c6.144 19.456 22.528 26.624 29.696 27.648l74.752 12.288v94.208l-75.776 12.288c-2.048 0-21.504 5.12-29.696 27.648l-3.072 6.144v1.024l-2.048 5.12c-9.216 17.408-3.072 33.792 2.048 40.96l45.056 62.464-66.56 66.56-62.464-44.032c-1.024 1.024-2.048 0-4.096 0-2.048-1.024-25.6-6.144-45.056 3.072l-5.12 3.072c-19.456 6.144-26.624 22.528-27.648 29.696l-12.288 74.752H368.64l-12.288-75.776c0-2.048-6.144-21.504-27.648-29.696l-13.312-5.12c-17.408-9.216-33.792-3.072-40.96 1.024l-62.464 44.032-66.56-65.536 44.032-63.488c1.024-2.048 11.264-19.456 1.024-39.936l-6.144-13.312c-6.144-19.456-22.528-26.624-29.696-27.648l-74.752-12.288v-94.208l76.8-12.288c2.048 0 21.504-5.12 29.696-27.648l3.072-6.144v-1.024l2.048-5.12c9.216-17.408 3.072-33.792-2.048-40.96l-44.032-62.464 32.768-32.768 33.792-33.792 63.488 44.032c2.048 1.024 19.456 11.264 39.936 1.024l13.312-6.144c19.456-6.144 26.624-22.528 27.648-29.696l12.288-74.752h94.208l12.288 75.776c0 2.048 5.12 21.504 27.648 29.696l6.144 3.072h1.024l6.144 2.048c8.192 3.072 16.384-2.048 19.456-9.216 3.072-8.192-2.048-16.384-9.216-19.456l-12.288-5.12h-1.024c-6.144-2.048-8.192-6.144-8.192-7.168l-12.288-72.704c-1.024-15.36-13.312-27.648-28.672-27.648h-98.304c-15.36 0-27.648 12.288-28.672 27.648l-12.288 73.728s-1.024 4.096-8.192 6.144c-1.024 0-2.048 1.024-2.048 1.024l-13.312 6.144c-5.12 3.072-9.216 1.024-10.24 1.024l-60.416-43.008c-11.264-10.24-28.672-9.216-38.912 1.024L156.672 256l-34.816 33.792c-10.24 10.24-11.264 27.648-1.024 38.912l43.008 61.44c1.024 1.024 2.048 4.096-1.024 9.216 0 1.024-1.024 2.048-1.024 3.072l-5.12 12.288v1.024c-2.048 6.144-6.144 8.192-7.168 8.192l-73.728 12.288c-15.36 1.024-27.648 13.312-27.648 28.672V563.2c0 15.36 12.288 27.648 27.648 28.672l73.728 12.288s4.096 1.024 6.144 8.192c0 1.024 1.024 2.048 1.024 2.048l6.144 13.312c3.072 5.12 1.024 9.216 1.024 10.24l-43.008 60.416c-10.24 11.264-9.216 28.672 1.024 38.912l69.632 69.632c10.24 10.24 27.648 11.264 38.912 1.024l61.44-43.008c1.024-1.024 4.096-2.048 9.216 1.024 1.024 0 1.024 1.024 2.048 1.024l14.336 5.12c6.144 2.048 8.192 6.144 8.192 7.168l12.288 72.704c1.024 15.36 13.312 27.648 28.672 27.648h98.304c15.36 0 27.648-12.288 28.672-27.648l12.288-73.728s1.024-4.096 8.192-6.144c1.024 0 2.048-1.024 2.048-1.024l6.144-3.072c6.144-3.072 15.36-2.048 20.48-1.024l59.392 41.984c11.264 10.24 28.672 9.216 38.912-1.024l69.632-69.632c10.24-10.24 11.264-27.648 1.024-38.912l-44.032-61.44c-1.024-1.024-2.048-4.096 1.024-9.216 0-1.024 1.024-2.048 1.024-3.072l5.12-12.288v-1.024c2.048-6.144 6.144-8.192 7.168-8.192l72.704-12.288c15.36-1.024 27.648-13.312 27.648-28.672v-98.304c-1.024-16.384-13.312-28.672-28.672-29.696z" p-id="12559" fill="#1296db"></path><path d="M573.44 363.52h19.456c1.024 0 2.048-1.024 2.048-2.048V160.768c0-1.024-1.024-2.048-2.048-2.048H573.44c-1.024 0-2.048 1.024-2.048 2.048v199.68c0 1.024 1.024 3.072 2.048 3.072zM780.288 157.696h-19.456c-1.024 0-1.024 0-2.048 1.024s-1.024 0-1.024 1.024l2.048 166.912-105.472-166.912c0-1.024-1.024-1.024-2.048-1.024h-23.552c-1.024 0-2.048 1.024-2.048 2.048v199.68c0 1.024 1.024 2.048 2.048 2.048h19.456c1.024 0 1.024 0 2.048-1.024s1.024-1.024 1.024-2.048l-2.048-166.912 105.472 167.936c0 1.024 1.024 1.024 2.048 1.024h23.552c1.024 0 2.048-1.024 2.048-2.048V159.744c1.024-1.024-1.024-2.048-2.048-2.048zM961.536 159.744c0-1.024-1.024-1.024-2.048-1.024h-19.456c-1.024 0-2.048 1.024-2.048 2.048l-61.44 163.84-61.44-163.84c0-1.024-1.024-2.048-2.048-2.048h-19.456c-1.024 0-2.048 0-2.048 1.024s-1.024 2.048 0 2.048l75.776 199.68c0 1.024 1.024 2.048 2.048 2.048h15.36c1.024 0 2.048-1.024 2.048-2.048l74.752-199.68c1.024-1.024 1.024-2.048 0-2.048z" p-id="12560" fill="#1296db"></path></svg>