<?xml version="1.0" standalone="no"?><!DOCTYPE svg PUBLIC "-//W3C//DTD SVG 1.1//EN" "http://www.w3.org/Graphics/SVG/1.1/DTD/svg11.dtd"><svg t="1570673805963" class="icon" viewBox="0 0 1024 1024" version="1.1" xmlns="http://www.w3.org/2000/svg" p-id="1766" xmlns:xlink="http://www.w3.org/1999/xlink" width="500" height="500"><defs><style type="text/css"></style></defs><path d="M853.333333 136.533333H170.666667c-20.48 0-34.133333 13.653333-34.133334 34.133334v682.666666c0 20.48 13.653333 34.133333 34.133334 34.133334h682.666666c20.48 0 34.133333-13.653333 34.133334-34.133334V170.666667c0-20.48-13.653333-34.133333-34.133334-34.133334z m-68.266666 542.72c0 10.24-10.24 20.48-20.48 20.48h-51.2c-6.826667 47.786667-47.786667 85.333333-98.986667 85.333334s-92.16-37.546667-98.986667-85.333334H259.413333c-10.24 0-20.48-10.24-20.48-20.48v-10.24c0-10.24 10.24-20.48 20.48-20.48h259.413334c13.653333-40.96 51.2-68.266667 95.573333-68.266666s81.92 27.306667 95.573333 68.266666h54.613334c10.24 0 20.48 10.24 20.48 20.48v10.24z m0-341.333333c0 10.24-10.24 20.48-20.48 20.48h-256c-6.826667 47.786667-47.786667 85.333333-98.986667 85.333333s-92.16-37.546667-98.986667-85.333333H259.413333c-10.24 0-20.48-10.24-20.48-20.48v-10.24c0-10.24 10.24-20.48 20.48-20.48h54.613334c13.653333-40.96 51.2-68.266667 95.573333-68.266667s81.92 27.306667 95.573333 68.266667h259.413334c10.24 0 20.48 10.24 20.48 20.48v10.24z" fill="#708BB1" p-id="1767"></path></svg>