<?xml version="1.0" standalone="no"?><!DOCTYPE svg PUBLIC "-//W3C//DTD SVG 1.1//EN" "http://www.w3.org/Graphics/SVG/1.1/DTD/svg11.dtd"><svg t="1570674082784" class="icon" viewBox="0 0 1024 1024" version="1.1" xmlns="http://www.w3.org/2000/svg" p-id="2356" xmlns:xlink="http://www.w3.org/1999/xlink" width="500" height="500"><defs><style type="text/css"></style></defs><path d="M204.8 122.88h197.973333c44.373333 0 78.506667 34.133333 78.506667 78.506667v197.973333c0 44.373333-34.133333 78.506667-78.506667 78.506667H204.8c-44.373333-3.413333-78.506667-40.96-78.506667-85.333334V197.973333c-3.413333-40.96 30.72-75.093333 78.506667-75.093333z m392.533333 0h197.973334c44.373333 0 78.506667 34.133333 78.506666 78.506667v197.973333c0 44.373333-34.133333 78.506667-78.506666 78.506667h-197.973334c-44.373333-3.413333-78.506667-40.96-78.506666-85.333334V197.973333c-3.413333-40.96 34.133333-75.093333 78.506666-75.093333m0 273.066667h197.973334V197.973333h-197.973334v197.973334z m0 119.466666h197.973334c44.373333 0 78.506667 34.133333 78.506666 78.506667v197.973333c0 44.373333-34.133333 78.506667-78.506666 78.506667h-197.973334c-44.373333 0-78.506667-34.133333-78.506666-78.506667v-197.973333c-3.413333-40.96 34.133333-78.506667 78.506666-78.506667m0 273.066667h197.973334v-197.973333h-197.973334v197.973333zM204.8 515.413333h197.973333c44.373333 0 78.506667 34.133333 78.506667 78.506667v197.973333c0 44.373333-34.133333 78.506667-78.506667 78.506667H204.8c-44.373333 0-78.506667-34.133333-78.506667-78.506667v-197.973333c-3.413333-40.96 30.72-78.506667 78.506667-78.506667m0 273.066667h197.973333v-197.973333H204.8v197.973333z" fill="#708BB1" p-id="2357"></path></svg>