<?xml version="1.0" standalone="no"?><!DOCTYPE svg PUBLIC "-//W3C//DTD SVG 1.1//EN" "http://www.w3.org/Graphics/SVG/1.1/DTD/svg11.dtd"><svg t="1564630708261" class="icon" viewBox="0 0 1024 1024" version="1.1" xmlns="http://www.w3.org/2000/svg" p-id="5212" xmlns:xlink="http://www.w3.org/1999/xlink" width="200" height="200"><defs><style type="text/css"></style></defs><path d="M482.742857 517.485714c-7.314286-3.657143-14.628571-9.142857-23.771428-12.8v-21.942857h18.285714V457.142857h-18.285714v-32.914286h-23.771429V457.142857h-21.942857v25.6h20.114286c-5.485714 18.285714-12.8 34.742857-21.942858 53.028572 1.828571 10.971429 3.657143 21.942857 5.485715 34.742857 7.314286-10.971429 12.8-23.771429 18.285714-36.571429v78.628572h23.771429V530.285714c5.485714 3.657143 9.142857 5.485714 10.971428 9.142857l12.8-21.942857zM493.714286 517.485714c-7.314286 23.771429-14.628571 43.885714-23.771429 62.171429 7.314286 1.828571 14.628571 5.485714 21.942857 9.142857 9.142857-18.285714 16.457143-40.228571 23.771429-64l-21.942857-7.314286zM486.4 431.542857h109.714286V457.142857h-109.714286z" fill="#1296db" p-id="5213"></path><path d="M508.342857 96.914286C281.6 96.914286 96.914286 281.6 96.914286 508.342857s184.685714 411.428571 411.428571 411.428572 411.428571-184.685714 411.428572-411.428572S735.085714 96.914286 508.342857 96.914286z m0 663.771428c-40.228571 0-197.485714-106.057143-197.485714-206.628571l-1.828572-201.142857H329.142857s43.885714-1.828571 89.6-18.285715c47.542857-18.285714 76.8-40.228571 76.8-40.228571l10.971429-7.314286 12.8 7.314286s31.085714 21.942857 76.8 40.228571c45.714286 18.285714 89.6 18.285714 89.6 18.285715h16.457143l1.828571 201.142857c3.657143 100.571429-149.942857 206.628571-195.657143 206.628571z" fill="#1296db" p-id="5214"></path><path d="M601.6 480.914286h-124.342857v25.6h49.371428v69.485714c0 7.314286-3.657143 10.971429-10.971428 10.971429-5.485714 0-10.971429 0-18.285714-1.828572 1.828571 7.314286 3.657143 16.457143 5.485714 27.428572h29.257143c7.314286 0 12.8-1.828571 16.457143-5.485715 3.657143-3.657143 5.485714-9.142857 5.485714-16.457143v-82.285714H603.428571v-27.428571z" fill="#1296db" p-id="5215"></path><path d="M559.542857 526.628571c7.314286 18.285714 14.628571 38.4 21.942857 62.171429l23.771429-9.142857c-7.314286-21.942857-14.628571-42.057143-23.771429-60.342857l-21.942857 7.314285z" fill="#1296db" p-id="5216"></path></svg>