<?xml version="1.0" standalone="no"?><!DOCTYPE svg PUBLIC "-//W3C//DTD SVG 1.1//EN" "http://www.w3.org/Graphics/SVG/1.1/DTD/svg11.dtd"><svg t="1570673706037" class="icon" viewBox="0 0 1024 1024" version="1.1" xmlns="http://www.w3.org/2000/svg" p-id="1518" width="500" height="500" xmlns:xlink="http://www.w3.org/1999/xlink"><defs><style type="text/css"></style></defs><path d="M327.68 341.333333c0 95.573333 75.093333 170.666667 170.666667 170.666667s170.666667-75.093333 170.666666-170.666667-75.093333-170.666667-170.666666-170.666666-170.666667 75.093333-170.666667 170.666666z" fill="#708BB1" p-id="1519"></path><path d="M563.2 563.2h-129.706667c-129.706667 0-232.106667 102.4-232.106666 232.106667 0 30.72 27.306667 58.026667 58.026666 58.026666h477.866667c30.72 0 58.026667-27.306667 58.026667-58.026666 0-126.293333-102.4-232.106667-232.106667-232.106667zM314.026667 443.733333c-17.066667-30.72-27.306667-64.853333-27.306667-102.4 0-61.44 27.306667-119.466667 71.68-160.426666-10.24-3.413333-23.893333-3.413333-34.133333-3.413334-71.68 3.413333-129.706667 64.853333-126.293334 139.946667 3.413333 64.853333 51.2 116.053333 116.053334 126.293333z m399.36-102.4c0 34.133333-10.24 71.68-27.306667 102.4 75.093333-10.24 126.293333-78.506667 116.053333-150.186666-10.24-64.853333-61.44-112.64-126.293333-116.053334-10.24 0-23.893333 3.413333-34.133333 3.413334 44.373333 40.96 71.68 98.986667 71.68 160.426666z" fill="#708BB1" p-id="1520"></path><path d="M392.533333 525.653333c-17.066667-10.24-34.133333-23.893333-47.786666-40.96H273.066667c-102.4 0-184.32 81.92-184.32 184.32 0 23.893333 20.48 44.373333 44.373333 47.786667H170.666667c34.133333-102.4 119.466667-174.08 221.866666-191.146667z m334.506667-40.96h-71.68c-13.653333 17.066667-30.72 27.306667-47.786667 40.96 102.4 17.066667 187.733333 88.746667 221.866667 191.146667h37.546667c23.893333 0 44.373333-20.48 44.373333-44.373333-3.413333-105.813333-85.333333-187.733333-184.32-187.733334z" fill="#708BB1" p-id="1521"></path></svg>